<svg width="22" height="22" viewBox="0 0 22 22" fill="none" xmlns="http://www.w3.org/2000/svg">
<g clip-path="url(#clip0_125_678)">
<path d="M21.7376 11.2058C21.7376 10.3045 21.6645 9.64674 21.5062 8.96466H11.2139V13.0328H17.2552C17.1335 14.0438 16.4757 15.5663 15.0141 16.5894L14.9936 16.7256L18.2478 19.2466L18.4733 19.2691C20.5439 17.3568 21.7376 14.5432 21.7376 11.2058Z" fill="#4285F4"/>
<path d="M11.2138 21.9244C14.1736 21.9244 16.6583 20.95 18.4732 19.2691L15.014 16.5894C14.0884 17.235 12.846 17.6857 11.2138 17.6857C8.31496 17.6857 5.85457 15.7734 4.97751 13.1303L4.84895 13.1412L1.46515 15.76L1.4209 15.883C3.22355 19.464 6.92636 21.9244 11.2138 21.9244Z" fill="#34A853"/>
<path d="M4.97784 13.1303C4.74642 12.4482 4.61249 11.7174 4.61249 10.9622C4.61249 10.207 4.74642 9.47621 4.96566 8.79413L4.95953 8.64886L1.53333 5.98804L1.42123 6.04136C0.678266 7.52737 0.251953 9.19609 0.251953 10.9622C0.251953 12.7284 0.678266 14.397 1.42123 15.883L4.97784 13.1303Z" fill="#FBBC05"/>
<path d="M11.2138 4.23869C13.2723 4.23869 14.6608 5.12785 15.4525 5.87089L18.5463 2.85018C16.6462 1.08405 14.1736 0 11.2138 0C6.92636 0 3.22355 2.46039 1.4209 6.04135L4.96533 8.79412C5.85457 6.15102 8.31496 4.23869 11.2138 4.23869Z" fill="#EB4335"/>
</g>
<defs>
<clipPath id="clip0_125_678">
<rect width="22" height="22" fill="white"/>
</clipPath>
</defs>
</svg>
