<svg width="84" height="18" viewBox="0 0 84 18" fill="none" xmlns="http://www.w3.org/2000/svg">
<path d="M12.8514 0C13.6288 6.53341e-05 14.2592 0.619487 14.2592 1.38357C14.2592 2.14766 13.6288 2.76708 12.8514 2.76714H6.31029C4.31623 2.76714 3.31897 3.43915 3.31895 4.78316C3.31895 5.62648 3.8928 6.23243 5.04008 6.60139L11.5139 8.8152C13.0436 9.31591 14.1086 9.90918 14.7096 10.5944C15.3378 11.2532 15.6522 12.1492 15.6522 13.2824C15.6521 16.392 13.5898 17.9468 9.46518 17.9469H2.14555C1.36806 17.9469 0.737772 17.3274 0.737772 16.5633C0.737773 15.7992 1.36806 15.1797 2.14555 15.1797H8.48183C9.54693 15.1797 10.2161 15.1665 10.4893 15.1402C11.2495 14.9935 12.0307 14.5705 12.1916 13.8257C12.2312 13.6419 12.2512 13.4343 12.2512 13.2033C12.2512 12.3073 11.6913 11.6749 10.5713 11.3059L3.64657 8.93388C2.33546 8.48587 1.39291 7.93221 0.819293 7.27339C0.273095 6.58822 0 5.67889 0 4.54581C0.000103562 1.51527 2.26759 0 6.80197 0H12.8514Z" fill="#0D0D0D"/>
<path d="M26.3366 13.9769V17.9469C24.0442 17.8138 22.0749 16.9444 20.4293 15.337C18.6687 13.6171 17.772 11.5177 17.7391 9.03954L26.3366 13.9769Z" fill="#0D0D0D"/>
<path d="M56.293 0.0531246C58.3765 0.0531644 60.0251 0.699072 61.2383 1.99103C62.4779 3.25727 63.0975 4.96335 63.0975 7.10819V16.4497C63.0974 17.3059 62.3889 18 61.515 18C60.6411 17.9999 59.9325 17.3058 59.9324 16.4497V7.45671C59.9324 6.11305 59.59 5.05317 58.9043 4.27795C58.2186 3.50283 57.282 3.11528 56.0953 3.11521C54.6975 3.11521 53.7473 3.49005 53.2461 4.23939C52.7451 4.96283 52.4422 5.55747 52.3367 6.02256C52.2312 6.46184 52.1782 7.13379 52.1782 8.03808V16.4497C52.1781 17.3058 51.4695 17.9999 50.5957 18C49.7218 17.9999 49.0132 17.3058 49.0131 16.4497V7.72812C49.0131 4.65321 47.6812 3.11533 45.0175 3.11521C43.6725 3.11521 42.8149 3.60786 42.2081 4.23939C41.6428 4.82777 41.417 5.55785 41.3378 5.94545C41.2588 6.33312 41.2191 6.9792 41.2191 7.88335V16.4497C41.219 17.3059 40.5105 18 39.6366 18C38.7626 18 38.0542 17.3059 38.0541 16.4497V7.41815C38.0541 5.99703 38.1729 4.91168 38.4102 4.16228C38.6646 3.43941 39.1892 2.54998 40.1622 1.69075C40.2378 1.62398 40.2839 1.57468 40.3735 1.50045C41.3513 0.69062 42.853 0.053148 44.8591 0.0531246C45.2153 0.0531329 45.5596 0.0752395 45.8919 0.118222C45.9516 0.125955 46.0112 0.134137 46.0702 0.14326C47.1141 0.304746 48.0363 0.683954 48.8368 1.28096C49.5265 1.79536 50.1259 2.47128 50.6349 3.309C51.1334 2.45425 51.729 1.7686 52.4197 1.25042C53.4831 0.452673 54.774 0.0531246 56.293 0.0531246Z" fill="#0D0D0D"/>
<path d="M74.9271 0C77.5413 0 79.7073 0.887076 81.4244 2.66149C83.1416 4.43587 84 6.69201 84 9.42962V16.0936C83.9999 16.9281 83.3115 17.6048 82.4623 17.6049C81.6131 17.6049 80.9247 16.9282 80.9246 16.0936V10.038C80.9246 7.90877 80.3733 6.21033 79.2712 4.9429C78.1948 3.65024 76.7341 3.00403 74.8889 3.004C73.223 3.004 71.8133 3.58708 70.66 4.75312C69.5067 5.91914 68.9302 7.33853 68.9302 9.01149C68.9302 10.6845 69.5067 12.0911 70.66 13.2318C71.8133 14.3725 73.2487 14.9429 74.9659 14.9429C75.776 14.9428 76.5933 14.7495 77.4176 14.3625C78.3684 13.9162 79.6557 14.4933 79.6559 15.5288C79.6559 15.8807 79.5008 16.2184 79.2167 16.4326C78.5513 16.9345 77.9033 17.3 77.2724 17.5287C76.5035 17.8076 75.6064 17.9469 74.5812 17.9469C72.1208 17.9469 70.0319 17.0852 68.3147 15.3615C66.5975 13.6378 65.7391 11.521 65.7391 9.01149C65.7391 6.52732 66.6232 4.41055 68.3916 2.66149C70.1857 0.887102 72.3643 2.09018e-05 74.9271 0Z" fill="#0D0D0D"/>
<path d="M34.9468 4.77465C35.6486 6.06641 36 7.50409 36 9.08811C36 11.5011 35.1159 13.5843 33.3475 15.337C31.7985 16.8721 29.9739 17.7343 27.8743 17.9248V8.83673L34.9468 4.77465Z" fill="#0D0D0D"/>
<path d="M26.3366 12.2163L17.866 7.35101C18.172 5.56141 19.0266 3.98124 20.4293 2.61091C22.0749 1.00341 24.0442 0.133161 26.3366 0V12.2163Z" fill="#0D0D0D"/>
<path d="M27.8743 0.0225337C29.9739 0.21592 31.7985 1.09208 33.3475 2.64947C33.62 2.92348 33.8716 3.20623 34.1021 3.49774L27.8743 7.07509V0.0225337Z" fill="#0D0D0D"/>
</svg>
